<?xml version="1.0" standalone="no"?><!DOCTYPE svg PUBLIC "-//W3C//DTD SVG 1.1//EN" "http://www.w3.org/Graphics/SVG/1.1/DTD/svg11.dtd"><svg t="1727266701564" class="icon" viewBox="0 0 1024 1024" version="1.1" xmlns="http://www.w3.org/2000/svg" p-id="5310" xmlns:xlink="http://www.w3.org/1999/xlink" width="81" height="81"><path d="M0 0m0 0l1024 0q0 0 0 0l0 1024q0 0 0 0l-1024 0q0 0 0 0l0-1024q0 0 0 0Z" fill="#E8EFF8" p-id="5311"></path><path d="M265.402182 261.655273a139.636364 139.636364 0 0 1 197.469091 0q54.528 54.528 16.453818 213.922909-159.394909 38.074182-213.922909-16.453818a139.636364 139.636364 0 0 1 0-197.469091z" fill="#69CB91" p-id="5312"></path><path d="M261.655273 762.740364a139.636364 139.636364 0 0 1 0-197.469091q54.528-54.551273 213.922909-16.477091 38.074182 159.418182-16.453818 213.946182a139.636364 139.636364 0 0 1-197.469091 0zM778.123636 269.521455a139.636364 139.636364 0 0 0-197.469091 0q-54.528 54.551273-16.453818 213.946181 159.394909 38.074182 213.922909-16.453818a139.636364 139.636364 0 0 0 0-197.492363z" fill="#247ADE" p-id="5313"></path><path d="M781.870545 770.629818a139.636364 139.636364 0 0 0 0-197.492363q-54.528-54.528-213.922909-16.453819-38.074182 159.418182 16.453819 213.946182a139.636364 139.636364 0 0 0 197.46909 0z" fill="#A0BFF7" p-id="5314"></path></svg>